<?xml version="1.0" encoding="utf-8"?>
<!-- Generator: Adobe Illustrator 22.1.0, SVG Export Plug-In . SVG Version: 6.00 Build 0)  -->
<svg version="1.1" id="Layer_1" xmlns="http://www.w3.org/2000/svg" xmlns:xlink="http://www.w3.org/1999/xlink" x="0px" y="0px"
	 viewBox="0 0 180 180" style="enable-background:new 0 0 180 180;" xml:space="preserve">
<style type="text/css">
	.st0{fill:#EFFBFA;}
	.st1{fill:#F2F2F2;}
	.st2{fill:#FFF1E3;}
	.st3{fill:#17BCB5;}
	.st4{fill:#ED4642;}
	.st5{fill:#231F20;}
	.st6{fill:#FFFFFF;}
	.st7{fill:#13756E;}
	.st8{fill:#16342F;}
	.st9{fill:#CCA983;}
	.st10{fill:#F2C994;}
	.st11{fill:#D3D3D3;}
</style>
<title>Artboard 51</title>
<path class="st0" d="M47,89l-18.4,31.7c-1,1.8-1.6,3.8-1.6,5.8c0,6.5,5.2,11.7,11.7,11.7l36.7,0.1l36.7,0.1c2.1,0,4.1-0.5,5.9-1.6
	c5.6-3.2,7.5-10.4,4.3-16l-18.3-31.8L85.6,57.3c-1-1.8-2.5-3.2-4.3-4.3c-5.6-3.2-12.8-1.3-16,4.3L47,89z"/>
<ellipse class="st1" cx="40.7" cy="156" rx="10.8" ry="3.1"/>
<path class="st2" d="M101.1,106.3l-12.4,21.5c-0.7,1.2-1.1,2.6-1.1,3.9c0,4.4,3.5,7.9,7.9,7.9h24.8l24.8,0.1c1.4,0,2.8-0.4,4-1.1
	c3.8-2.2,5.1-7,2.9-10.8l-12.3-21.5l-12.4-21.5c-0.7-1.2-1.7-2.2-2.9-2.9c-3.8-2.2-8.6-0.9-10.8,2.9L101.1,106.3z"/>
<ellipse class="st1" cx="82.3" cy="155.9" rx="38.1" ry="5.6"/>
<polygon class="st3" points="44.8,156.7 35.5,156.7 34.1,143.1 46.3,143.1 "/>
<path class="st3" d="M36.2,155.2H35c-3,0.1-5.5-2.2-5.6-5.1c-0.1-3,2.2-5.5,5.1-5.6c0.2,0,0.3,0,0.5,0h1.2v1.8H35
	c-2,0-3.6,1.6-3.6,3.6c0,2,1.6,3.6,3.6,3.6h1.2L36.2,155.2z"/>
<g>
	<path d="M98.9,58.2c-0.2,0-0.4-0.2-0.3-0.4c0.3-4.4,1.7-7.4,4.2-9c4-2.5,9.2-0.5,9.4-0.4c0.2,0.1,0.3,0.3,0.2,0.5c0,0,0,0,0,0
		c-0.1,0.2-0.3,0.3-0.5,0.2c-0.1,0-5.1-2-8.8,0.3c-2.3,1.4-3.6,4.3-3.8,8.4C99.3,58.1,99.2,58.2,98.9,58.2L98.9,58.2z"/>
	<path class="st4" d="M119.1,38.3c-0.2,0.5-0.1,1.2,0.4,1.5l5.3,4.2c0.5,0.4,1.2,0.4,1.7-0.1c0.9-0.9,2.5-2.2,3.9-1.6l3.3,17.9
		c0.4,2,2.3,3.3,4.2,2.9l16.8-3.1c0,0,0,0,0,0c2-0.4,3.3-2.3,2.9-4.2L154.3,38c0,0,1.8-1.5,4.6,0c0.6,0.3,1.3,0.1,1.7-0.5l3.2-5
		c0.4-0.6,0.2-1.3-0.3-1.8c-2.6-2-10.1-6.9-16.6-5.5l-0.6,0.1c0.1,0.2,0.1,0.4,0.1,0.6c0.7,3.5-1.7,6.9-5.2,7.5
		c-3.5,0.7-6.9-1.7-7.5-5.2c-0.1-0.1-0.1-0.3-0.1-0.4h-0.2C133.4,27.9,122.3,30.4,119.1,38.3z"/>
	<path class="st5" d="M136.3,28.5c0-0.2,0.1-0.4,0.3-0.4l7.6-1.4c0,0,0,0,0,0c0.2,0,0.4,0.1,0.4,0.3c0,0.2-0.1,0.4-0.3,0.4l-7.6,1.4
		h-0.1C136.4,28.8,136.3,28.7,136.3,28.5z"/>
	<path class="st5" d="M140.5,27.9L140.5,27.9c-0.3,0.1-0.4-0.1-0.5-0.3c0,0,0,0,0,0l-0.6-3.1l0.4-0.1c0.8-0.1,1.5-0.6,2-1.3
		c0.4-0.7,0.6-1.5,0.4-2.3c-0.3-1.5-1.8-2.6-3.4-2.3c-1.6,0.3-2.8,1.8-2.5,3.4c0,0,0,0.1,0,0.1c0.1,0.2,0,0.4-0.2,0.5
		c-0.2,0.1-0.4,0-0.5-0.2c0,0,0-0.1,0-0.1c-0.4-2,0.9-4,2.9-4.4c0,0,0.1,0,0.1,0c2-0.3,3.9,1.1,4.3,3.1c0.1,0.9-0.1,1.9-0.6,2.7
		c-0.5,0.7-1.2,1.3-2.1,1.5l0.5,2.4C140.8,27.7,140.7,27.9,140.5,27.9z"/>
	<path class="st6" d="M147.8,37.4c-0.2-0.1-0.5,0-0.6,0.2l-1.5,3.4c0,0.1,0,0.2,0,0.3c0.1,0.2,0.3,0.4,0.5,0.4l4-0.8
		c0.1,0,0.2-0.1,0.2-0.1c0.2-0.2,0.2-0.5,0-0.7l-2.6-2.6C147.9,37.4,147.9,37.4,147.8,37.4z"/>
	<path class="st3" d="M127.7,68l3.9-3.7c0.2-0.2,0.3-0.3,0.6-0.3c0.8-0.3,1.7,0.1,2,0.9l1.9,5c0.1,0.3,0.1,0.6,0.1,0.9l-1.6,7.3
		c-0.2,0.9-1.1,1.4-1.9,1.2l-5.8-1.3c-0.9-0.2-1.4-1-1.2-1.9l1.7-7.3C127.3,68.5,127.4,68.2,127.7,68z"/>
	<path class="st5" d="M130.2,68.5c-0.2-0.9,0.4-1.9,1.4-2.1c0.9-0.2,1.9,0.4,2.1,1.4l0,0c0.1,0.5,0,1-0.3,1.4
		c-0.6,0.8-1.7,0.9-2.5,0.3C130.6,69.3,130.3,68.9,130.2,68.5z M131.8,67.2c-0.5,0.1-0.9,0.6-0.8,1.2c0.1,0.5,0.6,0.9,1.2,0.8
		c0.5-0.1,0.9-0.6,0.8-1.2S132.3,67.1,131.8,67.2z M133.3,67.9L133.3,67.9z"/>
	<path class="st5" d="M131.3,68.4c-0.8-0.5-1.6-1-2.3-1.6c-1.1-0.8-1.9-1.9-2.2-3.2c-0.3-1.9,1-3.7,2.4-4.7c1.3-1,2.9-1.5,4.6-1.4
		c1.7,0.1,3.2,1.2,3.9,2.8c0,0.2,0,0.4-0.2,0.4c-0.2,0.1-0.4,0-0.5-0.2c-0.6-1.3-1.8-2.2-3.2-2.3c-1.5-0.1-2.9,0.4-4,1.3
		c-1.2,0.9-2.3,2.4-2.1,4c0.3,1.1,1,2.1,1.9,2.8c0.7,0.6,1.4,1.1,2.1,1.5c0,0,0,0,0,0c0.2,0.1,0.2,0.3,0.1,0.5
		c-0.1,0.1-0.3,0.2-0.4,0.2L131.3,68.4z"/>
</g>
<path class="st3" d="M97.8,109.1c3.8-13.3-11.1-14.6-11.1-14.6c-0.2,0,0.1,1-0.1,1.7c-0.1,0.7-0.7,1.3-1.4,1.5
	c-0.9,0.2-1.7,0.2-2.6,0.1c-0.9,0.1-1.7,0.1-2.6-0.1c-0.7-0.2-1.3-0.8-1.4-1.5c-0.1-0.7,0.1-1.7-0.1-1.7c0,0-17.1,0-11.1,14.6
	c1.7,4.2,2.5,11.1,2.7,17.4c0.2,6.6-0.7,12.7-0.6,15.1c0,0.8-0.1,1.9,0.8,1.9c4.1,0.3,8.3,0.2,12.4-0.1c4.1,0.3,8.3,0.3,12.4,0.1
	c0.9,0,0.8-1.1,0.8-1.9c0.1-2.4-0.8-8.6-0.6-15.1C95.4,120.6,96.3,114.7,97.8,109.1z"/>
<path class="st7" d="M94.2,96.6c10.1,0.4,19.3,22.1,16.1,28.8s-16.9,6.5-16.9,6.5l-9.6-5.1c0,0,12.8-5.7,12.3-9s0.7-5-0.8-11.8
	C93.8,98.7,94.2,96.6,94.2,96.6z"/>
<path class="st7" d="M70,96.6c-10.1,0.4-19.3,22.1-16.1,28.8s16.9,6.5,16.9,6.5l9.6-5.1c0,0-12.8-5.7-12.3-9s-0.7-5,0.8-11.8
	C70.5,98.7,70,96.6,70,96.6z"/>
<path class="st8" d="M95.2,127c-2.6-0.7-5.3-1-8-0.9c-4.2,0-8.4,0.6-12.5,1.7c-1.5,0.4-3,0.9-4.4,1.6c-0.1,5.4-0.7,10.1-0.7,12.1
	c0,0.8-0.1,1.9,0.8,1.9c4.1,0.3,8.3,0.2,12.4-0.1c4.1,0.3,8.3,0.3,12.4,0.1c0.9,0,0.8-1.1,0.8-1.9C95.9,139.2,95,133.3,95.2,127z"/>
<path class="st6" d="M75.4,147.3c-3.7-0.7-7.5-0.9-11.2-0.6c-1.3,0-2.5,0.3-3.7,0.8c-1.2,0.5-2,1.7-2.1,2.9c0.1,1.4,0.9,2.7,2.3,3.3
	c1.3,0.5,2.7,0.8,4.1,0.8c2.8,0.2,5.6,0.1,8.4-0.4c2.8-0.5,5.3-1.9,7.2-4"/>
<path d="M67.6,154.9c-1,0-1.9,0-2.8-0.1c-1.5,0-2.9-0.2-4.3-0.8c-1.5-0.6-2.4-2-2.5-3.6c0.1-1.4,1-2.6,2.3-3.2
	c1.2-0.5,2.5-0.8,3.8-0.8c3.8-0.3,7.6,0,11.3,0.6c0.2,0,0.3,0.2,0.3,0.4c0,0,0,0,0,0c0,0.2-0.2,0.3-0.4,0.3
	c-3.7-0.7-7.4-0.9-11.1-0.6c-1.2,0-2.4,0.3-3.6,0.8c-1.1,0.5-1.9,1.5-2,2.7c0.1,1.3,0.9,2.5,2.1,3c1.3,0.5,2.6,0.8,4,0.7
	c2.8,0.2,5.6,0.1,8.3-0.4c2.7-0.5,5.1-1.9,7-3.9c0.1-0.1,0.3-0.2,0.4,0c0.1,0.1,0.2,0.3,0,0.4l0,0c-1.9,2.1-4.5,3.6-7.4,4.1
	C71.3,154.7,69.4,154.9,67.6,154.9z"/>
<path d="M83.2,98.3c-1,0-2-0.2-3-0.4c-1-0.3-1.7-1.3-1.5-2.3c0-0.3,0.1-0.6,0.2-0.8c0.2-0.8,0.3-1.6,0.3-2.4c-2.7,0.2-3.4-1-3.7-2.2
	s-1.7-11.3-0.7-13.9c1.6-4.3,8.4-3,12.2-1.7c3.5,1.3,3.6,4.4,3.7,6.1c0,0.2,0,0.3,0,0.5c-0.1,2.8-0.4,5.6-0.9,8.3
	c-0.4,2.3-2.6,2.8-3.6,2.8c0.4,1.1,0.6,2.3,0.5,3.5c-0.1,0.7-0.5,1.4-1.1,1.8C84.8,98.1,84,98.3,83.2,98.3z M79.4,91.7
	c0.1,0,0.1,0,0.2,0.1c0.1,0.1,0.1,0.1,0.1,0.2c0,1-0.1,1.9-0.3,2.9c0,0.3-0.1,0.6-0.2,0.8c-0.1,0.7,0.3,1.4,1,1.6
	c1.3,0.3,3.6,0.8,4.9,0c0.5-0.3,0.8-0.9,0.9-1.4l0,0c0.1-1.2-0.1-2.5-0.6-3.6c0-0.1,0-0.2,0-0.3c0.1-0.1,0.2-0.1,0.3-0.1
	c0.1,0,3,0.1,3.4-2.3c0.5-2.7,0.8-5.4,0.9-8.2c0-0.2,0-0.3,0-0.5c0-1.7-0.1-4.4-3.2-5.6c-3.3-1.2-10-2.5-11.4,1.3
	C74.4,78.9,75.6,88.8,76,90C76.2,90.7,76.6,92,79.4,91.7L79.4,91.7z"/>
<path class="st9" d="M85.4,136.3c0,0,7.3-6.6,15.4-5.8s9.1,4,9.1,4s5.1,4.7-12.3,12.6c-12.8,5.8-19.4,7.9-21.9,8.6
	c-0.7,0.2-1.5-0.2-1.8-0.9l-3.5-7.8L85.4,136.3z"/>
<path class="st6" d="M87.2,153c3.6,1.2,7.3,2,11,2.3c1.3,0.2,2.5,0.1,3.8-0.2c1.2-0.4,2.2-1.3,2.5-2.6c0.2-1.4-0.5-2.8-1.8-3.6
	c-1.2-0.7-2.6-1.2-4-1.4c-2.7-0.6-5.5-0.9-8.3-0.8c-2.8,0.1-5.5,1.1-7.7,2.9"/>
<path d="M99.7,155.6c-0.5,0-1,0-1.5-0.1c-3.7-0.3-7.4-1.1-11-2.3c-0.2-0.1-0.2-0.2-0.2-0.4c0.1-0.2,0.2-0.2,0.4-0.2
	c3.5,1.2,7.2,2,10.9,2.3c1.2,0.2,2.4,0.1,3.6-0.2c1.1-0.3,2-1.2,2.3-2.4c0.1-1.3-0.5-2.6-1.6-3.3c-1.2-0.7-2.5-1.1-3.9-1.3
	c-2.7-0.6-5.5-0.9-8.3-0.8c-2.8,0.1-5.4,1.1-7.6,2.8c-0.1,0.1-0.3,0.1-0.4,0c0,0,0,0,0,0c-0.1-0.1-0.1-0.3,0-0.4c0,0,0,0,0,0
	c2.2-1.8,5-2.9,7.9-3c2.8-0.1,5.7,0.2,8.4,0.8c1.4,0.2,2.8,0.7,4.1,1.4c1.3,0.8,2.1,2.4,1.9,3.9c-0.3,1.4-1.4,2.4-2.8,2.8
	C101.3,155.6,100.5,155.7,99.7,155.6z"/>
<path class="st10" d="M76.5,136c0,0-7.3-6.6-15.4-5.8s-9.1,4-9.1,4s-5.1,4.7,12.3,12.6c6.5,3.1,13.2,5.7,20.1,7.9
	c2.1,0.6,4.3-0.7,4.9-2.8c0-0.1,0.1-0.2,0.1-0.3l0.8-4.1c0.2-0.9-0.2-1.7-0.9-2.3L76.5,136z"/>
<path class="st11" d="M65.9,131.6c-1.8-2.9-5.4-20.2-5.4-20.2l0.9-0.8H102l1.3,0.8l-4.8,20.2H65.9z"/>
<path class="st6" d="M66.4,131.6c-1.1-4.1-3.7-14.2-4.9-19.5H102l-4.1,19.5H66.4z"/>
<rect x="65.8" y="131.6" class="st11" width="32.8" height="2.3"/>
<path class="st9" d="M74.5,84.7c-0.1-0.2-3.7-3.8-2.9-8.8C73,67,91,67.3,93,75.9c1,4.5-1.5,10.4-1.5,10.4s-1.5,2.4-2.1-0.3
	c-0.2-1.1-0.3-4.3-0.4-5.6c-0.1-1.6-2.4-1.8-4-1.7c-3.8,0-7.8-2.9-7.8-2.9S75.8,87,74.5,84.7z"/>
<path class="st6" d="M88.1,143.1c0.1,1.6,0.2,7-3.2,11.4c0.3,0.1,0.6,0.2,0.9,0.2c2.3-3.2,3.4-7.1,3.2-11L88.1,143.1z"/>
<path class="st6" d="M75,151c0.8,2.2,1.6,4.2,1.7,4.6l1-0.3c-0.8-1.2-1.4-2.5-1.8-3.9L75,151z"/>
</svg>
