<svg xmlns="http://www.w3.org/2000/svg" width="180" height="180" viewBox="0 0 180 180">
    <g fill="none" fill-rule="evenodd" transform="translate(3 18)">
        <path fill="#FFF1E5" fill-rule="nonzero" d="M112.29 105.3l-20.72 31.41a4.78 4.78 0 0 0 4 7.41l41.8-.25a4.78 4.78 0 0 0 3.94-7.46l-21.09-31.16a4.78 4.78 0 0 0-7.93.05z"/>
        <path fill="#E9F5F4" fill-rule="nonzero" d="M42.42 33.19l-40 60.44a9.21 9.21 0 0 0 7.73 14.28l80.5-.4a9.2 9.2 0 0 0 7.58-14.35l-40.55-60a9.2 9.2 0 0 0-15.26.03z"/>
        <path fill="#231F20" fill-rule="nonzero" d="M108.43 135.5H28.88a4.52 4.52 0 0 1-4.51-4.5V51.43a4.52 4.52 0 0 1 4.51-4.52h79.55a4.52 4.52 0 0 1 4.57 4.52V131a4.52 4.52 0 0 1-4.57 4.5zM28.88 47.61a3.82 3.82 0 0 0-3.81 3.82V131a3.82 3.82 0 0 0 3.81 3.82h79.55a3.83 3.83 0 0 0 3.82-3.82V51.43a3.83 3.83 0 0 0-3.82-3.82H28.88z"/>
        <circle cx="32.37" cy="53.7" r="2.17" fill="#EE3F47" fill-rule="nonzero"/>
        <circle cx="38.92" cy="53.7" r="2.17" fill="#F4C89A" fill-rule="nonzero"/>
        <circle cx="45.22" cy="53.7" r="2.17" fill="#15BAB3" fill-rule="nonzero"/>
        <circle cx="32.37" cy="53.7" r="2.17"/>
        <circle cx="38.92" cy="53.7" r="2.17"/>
        <circle cx="45.22" cy="53.7" r="2.17"/>
        <path fill="#15BAB3" fill-rule="nonzero" d="M118.96 71.04H18.07l7.1-10.7h87.21z"/>
        <path fill="#52C2BD" fill-rule="nonzero" d="M41.49 79.22l5.83-8.69H32.77l5.79 8.71a1.76 1.76 0 0 0 2.93-.02z"/>
        <path fill="#52C2BD" fill-rule="nonzero" d="M27.49 79.19l5.83-8.69H18.77l5.79 8.72a1.77 1.77 0 0 0 2.93-.03zM56.05 79.22l5.83-8.69H47.32l5.8 8.71a1.76 1.76 0 0 0 2.93-.02zM70.6 79.22l5.84-8.69H61.88l5.8 8.71a1.75 1.75 0 0 0 2.92-.02z"/>
        <path fill="#52C2BD" fill-rule="nonzero" d="M84.29 79.22l5.84-8.69H75.57l5.8 8.71a1.75 1.75 0 0 0 2.92-.02z"/>
        <path fill="#52C2BD" fill-rule="nonzero" d="M98.85 79.22l5.84-8.69H90.13l5.8 8.71a1.75 1.75 0 0 0 2.92-.02z"/>
        <path fill="#52C2BD" fill-rule="nonzero" d="M112.43 79.22l5.83-8.69H103.7l5.8 8.71a1.76 1.76 0 0 0 2.93-.02z"/>
        <path fill="#FFF" fill-rule="nonzero" d="M18 71.19v-.35l100.94.02v.36"/>
        <path fill="#231F20" fill-rule="nonzero" d="M106.86 56.07h-44a1.58 1.58 0 0 1-1.58-1.58V52.9c0-.873.707-1.58 1.58-1.58h44c.873 0 1.58.707 1.58 1.58v1.59a1.58 1.58 0 0 1-1.58 1.58zm-44-4a.88.88 0 0 0-.87.88v1.59a.88.88 0 0 0 .87.88h44a.88.88 0 0 0 .87-.88V52.9a.88.88 0 0 0-.87-.88l-44 .05z"/>
        <path fill="#ED4642" fill-rule="nonzero" d="M58.91 92.88h-.24v.42a6.63 6.63 0 1 1-13.26 0v-.62h-.59c-6.82-.23-13.46 6.21-15.74 8.67a1.34 1.34 0 0 0 0 1.83l4.15 4.48a1.33 1.33 0 0 0 1.8.15c2.57-2 4.62-.87 4.62-.87v18.73a3.74 3.74 0 0 0 3.75 3.74h17.5a3.73 3.73 0 0 0 3.74-3.74v-18.75c1.23-.85 3.08.12 4.18.87a1.34 1.34 0 0 0 1.76-.23l4.6-5.25a1.37 1.37 0 0 0 .12-1.63c-4.74-7.38-16.39-7.8-16.39-7.8z"/>
        <path fill="#231F20" fill-rule="nonzero" d="M55.79 94.34h-7.92a.34.34 0 0 1 0-.67h7.92a.34.34 0 0 1 0 .67z"/>
        <path fill="#231F20" fill-rule="nonzero" d="M51.83 94.06a.33.33 0 0 1-.33-.33v-3.17h.33A3.11 3.11 0 0 0 55 87.35a3.16 3.16 0 0 0-3-3 3.11 3.11 0 0 0-3.21 3.12.34.34 0 0 1-.67 0 3.79 3.79 0 0 1 3.89-3.78 3.82 3.82 0 0 1 3.68 3.67 3.78 3.78 0 0 1-3.45 3.88v2.52a.33.33 0 0 1-.41.3z"/>
        <path fill="#FFF" fill-rule="nonzero" d="M57.8 105.27l-2.1 3.08a.47.47 0 0 0 .38.74h4.15a.48.48 0 0 0 .4-.74l-2-3.12a.48.48 0 0 0-.83.04z"/>
        <path fill="#231F20" fill-rule="nonzero" d="M95.36 93.54H82.85a.36.36 0 0 1 0-.71h12.51a.36.36 0 1 1 0 .71zM107.88 97.49h-25a.35.35 0 1 1 0-.7h25a.35.35 0 1 1 0 .7zM107.88 101.44h-25a.35.35 0 1 1 0-.7h25a.35.35 0 1 1 0 .7zM107.88 105.39h-25a.35.35 0 1 1 0-.7h25a.35.35 0 1 1 0 .7z"/>
        <rect width="25.95" height="5.06" x="82.85" y="109.06" fill="#15BAB3" fill-rule="nonzero" rx="1.81"/>
        <path fill="#231F20" fill-rule="nonzero" d="M127.38 60.45h-.2v-.66c6.08 0 14.4-1.29 19.51-7.79a17.17 17.17 0 0 0 3.52-7.84l.65.07a17.6 17.6 0 0 1-3.65 8.17c-5.21 6.6-13.62 8.05-19.83 8.05zM116.66 39v-9.1h3.86a2.63 2.63 0 0 1 1.19.27 3.16 3.16 0 0 1 1.54 1.68c.148.352.226.729.23 1.11a3.21 3.21 0 0 1-.21 1.15 3.37 3.37 0 0 1-.59 1 2.69 2.69 0 0 1-2.1.94h-1.83V39h-2.09zm2.09-4.74h1.71a.8.8 0 0 0 .63-.32 1.39 1.39 0 0 0 .27-.93 1.77 1.77 0 0 0-.08-.55 1.27 1.27 0 0 0-.22-.38.84.84 0 0 0-.32-.22.92.92 0 0 0-.36-.07h-1.63v2.47zM124.05 39v-9.1h4.08a2.62 2.62 0 0 1 1.18.27c.353.174.672.412.94.7a3.3 3.3 0 0 1 .61 1c.148.352.226.729.23 1.11a3.1 3.1 0 0 1-.11.81 2.72 2.72 0 0 1-.29.73 2.85 2.85 0 0 1-.46.62 2.77 2.77 0 0 1-.62.46l2.07 3.4h-2.35l-1.83-3h-1.36v3h-2.09zm2.09-4.74h1.91a.8.8 0 0 0 .64-.35c.203-.26.312-.58.31-.91a1.24 1.24 0 0 0-.31-.89.88.88 0 0 0-.66-.33h-1.85l-.04 2.48zM132.21 39v-9.1h2.09V39zM137.36 33.77V39h-2.09v-9.1h1.63l4.22 5.32V29.9h2.09V39h-1.69zM151.32 31.74h-2.75V39h-2.09v-7.26h-2.76V29.9h7.6zM151.85 39v-9.1H158v1.84h-4.05v1.95h3.34v1.69h-3.34V39zM162.41 37.17c.319.009.634-.07.91-.23a1.88 1.88 0 0 0 .6-.59 2.54 2.54 0 0 0 .32-.85 4.5 4.5 0 0 0 .1-1v-4.6h2.09v4.63a6.24 6.24 0 0 1-.24 1.76 4 4 0 0 1-.73 1.42 3.42 3.42 0 0 1-1.24 1 4.83 4.83 0 0 1-3.66 0 3.49 3.49 0 0 1-1.24-1 4 4 0 0 1-.7-1.44 6.34 6.34 0 0 1-.22-1.7V29.9h2.09v4.63c-.004.336.03.671.1 1 .06.297.172.581.33.84.146.241.349.444.59.59.277.146.587.219.9.21zM167.52 39v-9.1h2.09v7.21H174V39z"/>
        <path fill="#F2C994" fill-rule="nonzero" d="M116.46 26.5l15.15-26 15.15 26z"/>
        <path fill="#ED4642" fill-rule="nonzero" d="M130.14 26.5l15.15-26 15.15 26z"/>
        <path fill="#17BCB5" fill-rule="nonzero" d="M143.88 26.5l15.15-26 15.15 26z"/>
        <path fill="#DF392F" fill-rule="nonzero" d="M130.14 26.5h16.62l-8.37-14.24z"/>
        <path fill="#16342F" fill-rule="nonzero" d="M143.82 26.5h16.62l-8.26-14.24z"/>
        <path fill="#15291A" fill-rule="nonzero" d="M143.82 26.5h2.94l-1.47-2.5z"/>
    </g>
</svg>
