<svg xmlns="http://www.w3.org/2000/svg" width="180" height="180" viewBox="0 0 180 180">
    <g fill="none" fill-rule="nonzero" transform="translate(20 22)">
        <ellipse cx="87.01" cy="120.3" fill="#F2F2F2" rx="21.05" ry="4.36"/>
        <path fill="#FFF1E3" d="M105.53 5.65a10.19 10.19 0 0 0-17.66 0L72 33.39 56 61.1a10.2 10.2 0 0 0 8.86 15.29l32-.07 32-.07a10.2 10.2 0 0 0 8.8-15.32l-16-27.64-16.13-27.64z"/>
        <path fill="#EFFBFA" d="M63.87 6.9a12.75 12.75 0 0 0-22.08 0l-19.9 34.67L2 76.2a12.74 12.74 0 0 0 11.08 19.09L53 95.21l39.94-.09A12.75 12.75 0 0 0 104 76L84 41.46 63.87 6.9z"/>
        <ellipse cx="44.85" cy="127.1" fill="#F2F2F2" rx="39.08" ry="8.4"/>
        <path fill="#F2C994" d="M66.1 127.35H24.42a4.48 4.48 0 0 1-4.46-4L14.8 78a4.49 4.49 0 0 1 4.47-5h49.25A4.5 4.5 0 0 1 73 77.76l-2.42 45.33a4.5 4.5 0 0 1-4.48 4.26z"/>
        <path fill="#FFF" d="M54.49 123.58l-29.83.18-2.19-19.48 32.81-.19z"/>
        <path fill="#000" d="M32.29 110.81l-2.11-3.12h1.3l1.36 2.12 1.28-2.16h1.3l-2 3.18v2.19h-1.14zM34.7 111a2 2 0 1 1 4 .002 2 2 0 0 1-4-.002zm3-.05a1 1 0 1 0-1 1.15 1 1 0 0 0 1.04-1.1l-.04-.05zM42.18 112.35a1.81 1.81 0 0 1-1.35.61 1.11 1.11 0 0 1-1.27-1.2l-.05-2.76h1v2.35a.62.62 0 0 0 .72.7 1.18 1.18 0 0 0 .88-.46v-2.61h1l.06 3.87h-1l.01-.5zM44.15 108.94h1v.53a1.68 1.68 0 0 1 1.23-.64v1h-.28a1.3 1.3 0 0 0-.94.45v2.56h-1l-.01-3.9zM29.09 114.55l2.81-.05a1.39 1.39 0 0 1 1.56 1.34 1.19 1.19 0 0 1-.9 1.24c.6.134 1.02.676 1 1.29a1.4 1.4 0 0 1-1.53 1.47h-2.89l-.05-5.29zm2.6 2.1a.57.57 0 0 0 .61-.6.58.58 0 0 0-.63-.58h-1.43v1.17l1.45.01zm.07 2.23a.63.63 0 0 0 0-1.26H30.3v1.26h1.46zM34.4 115.94h1v.53a1.68 1.68 0 0 1 1.23-.64v1a.8.8 0 0 0-.28 0 1.26 1.26 0 0 0-.94.44v2.56h-1l-.01-3.89zM39.66 119.32a1.61 1.61 0 0 1-1.22.52 1.3 1.3 0 0 1-1.37-1.26 1.23 1.23 0 0 1 1.33-1.26 1.55 1.55 0 0 1 1.23.46v-.54c0-.39-.34-.64-.86-.64a1.67 1.67 0 0 0-1.12.48l-.39-.68a2.54 2.54 0 0 1 1.68-.63c.88 0 1.69.32 1.71 1.44v2.5h-1l.01-.39zm0-1a1 1 0 0 0-.82-.32c-.4 0-.73.23-.72.59.01.36.34.57.74.56a1 1 0 0 0 .81-.35l-.01-.48zM44.26 117.31a.63.63 0 0 0-.72-.71 1.15 1.15 0 0 0-.88.47v2.6h-1l-.06-3.87h1v.5a1.76 1.76 0 0 1 1.34-.62 1.13 1.13 0 0 1 1.28 1.21v2.73h-1l.04-2.31zM49 119.09a1.53 1.53 0 0 1-1.18.6c-1 0-1.73-.71-1.75-2a1.79 1.79 0 0 1 1.68-2.06 1.49 1.49 0 0 1 1.21.58v-2h1l.08 5.34h-1l-.04-.46zm0-2.13a1.11 1.11 0 0 0-.89-.43 1 1 0 0 0-1 1.15 1 1 0 0 0 1 1.1 1.09 1.09 0 0 0 .87-.45l.02-1.37z"/>
        <path fill="#ED4642" d="M56.37 39.84h-.25v.41a6.71 6.71 0 1 1-13.42 0v-.62h-.6c-6.9-.23-13.62 6.29-15.93 8.77a1.36 1.36 0 0 0 0 1.85l4.2 4.54a1.33 1.33 0 0 0 1.82.15c2.61-2 4.68-.87 4.68-.87v19a3.79 3.79 0 0 0 3.79 3.79h17.72A3.79 3.79 0 0 0 62.17 73V54c1.24-.87 3.11.12 4.23.88a1.37 1.37 0 0 0 1.78-.24l4.66-5.31a1.38 1.38 0 0 0 .16-1.59c-4.84-7.47-16.63-7.9-16.63-7.9z"/>
        <path fill="#231F20" d="M53.2 41.28h-8a.3.3 0 0 1-.31-.3.31.31 0 0 1 .31-.3h8a.31.31 0 0 1 .31.3.3.3 0 0 1-.31.3z"/>
        <path fill="#231F20" d="M49.2 41a.31.31 0 0 1-.31-.3v-3.17h.31a3.15 3.15 0 0 0 2.29-1 3.2 3.2 0 0 0 .9-2.32A3.2 3.2 0 0 0 47 32a3.18 3.18 0 0 0-1 2.3.3.3 0 0 1-.6 0 3.79 3.79 0 0 1 3.9-3.8 3.84 3.84 0 0 1 3.7 3.73 3.8 3.8 0 0 1-3.49 3.89v2.58a.31.31 0 0 1-.31.3z"/>
        <path fill="#FFF" d="M55.24 52.38l-2.13 3.12a.48.48 0 0 0 .39.75h4.2a.49.49 0 0 0 .41-.75L56 52.39a.49.49 0 0 0-.76-.01z"/>
        <path fill="#000" d="M57.61 33.67a16.31 16.31 0 0 1-3-.59 3.72 3.72 0 0 1-2.13.36 17.69 17.69 0 0 1-3.1-.67 1 1 0 0 1-.54-.36 1 1 0 0 1-.07-.81 4.46 4.46 0 0 1 4.16-3.26c.422.01.843.05 1.26.12h.18c3.57.46 5.46 1.19 5.78 2.21a1.49 1.49 0 0 1-.64 1.56l-.36.39a3.36 3.36 0 0 1-1.19 1 1.15 1.15 0 0 1-.35.05zm-3.09-1.21h.08a12.93 12.93 0 0 0 3.14.59 3.52 3.52 0 0 0 .91-.83 5.61 5.61 0 0 1 .41-.42c.39-.36.55-.67.47-.93-.08-.26-.85-1.23-5.29-1.8h-.18a9.62 9.62 0 0 0-1.17-.11 3.85 3.85 0 0 0-3.59 2.81v.32a.51.51 0 0 0 .24.13 16.94 16.94 0 0 0 3 .64 3.15 3.15 0 0 0 1.86-.34.25.25 0 0 1 .12-.06z"/>
        <path fill="#13756E" d="M91.14 31.05a6.77 6.77 0 0 1-.4 8.39c-1.83 2.13-5.12 4-10.91 2.79-8.87-1.84-18.3-6-22.1-7.79a1.86 1.86 0 0 1-.73-2.62l.55-1a2.75 2.75 0 0 1 3-1.39c3.71 1 11.66 2.89 14.92 2.89 3.16.04 13.4-4.19 15.67-1.27z"/>
        <path fill="#000" d="M92.13 123.16a2.46 2.46 0 0 1-1.29-.26.88.88 0 0 1-.44-.71c0-1.61 1.94-2.49 3.52-3.2l.26-.12a3.39 3.39 0 0 0 2.33-2.81c.135-2.06.01-4.13-.37-6.16a.31.31 0 0 1 0-.23.3.3 0 0 1 .2-.13 13.76 13.76 0 0 1 2.34-.24 12.5 12.5 0 0 0 2.12-.2.31.31 0 0 1 .23.06.28.28 0 0 1 .13.2c.4 3 .75 6 1.1 9a2.36 2.36 0 0 1-1.5 2.49c-1.54.64-6.12 2.31-8.63 2.31zm4.66-13.09c.34 1.98.447 3.994.32 6-.06 1-.58 2.36-2.68 3.32l-.26.12c-1.35.6-3.19 1.43-3.17 2.62.01.1.07.186.16.23.9.57 4.78-.28 9.41-2.06a1.76 1.76 0 0 0 1.12-1.86c-.34-2.92-.68-5.78-1.06-8.72a17 17 0 0 1-1.9.16c-.65.016-1.299.08-1.94.19zM77.45 119.33a17.3 17.3 0 0 1-3-.2c-1.25-.25-2.16-.47-2.42-1.08a1.51 1.51 0 0 1 .29-1.35c.54-.84 2.1-1.12 3.61-1.4a7.49 7.49 0 0 0 2.7-.77 3.63 3.63 0 0 0 1-2.82c0-.31 0-.61.09-.89.09-.64.146-1.284.17-1.93 0-.51.06-1 .13-1.59a.3.3 0 0 1 .14-.22.32.32 0 0 1 .27 0l2.2.87c.79.31 1.58.61 2.36.93a.31.31 0 0 1 .19.32l-.18 1.7c-.25 2-.5 4.16-.82 6.24a2.25 2.25 0 0 1-2 1.91 42 42 0 0 1-4.73.28zm3.16-11.56c0 .39-.06.78-.08 1.15 0 .64-.08 1.29-.18 2 0 .26-.06.54-.09.84A4.1 4.1 0 0 1 79 115a7.51 7.51 0 0 1-3 .9c-1.32.24-2.81.5-3.21 1.12-.23.37-.32.64-.25.8.15.33 1.06.53 2 .71a32.34 32.34 0 0 0 7.59-.08 1.65 1.65 0 0 0 1.43-1.4c.31-2.07.56-4.18.81-6.22l.18-1.5-2.14-.84-1.8-.72z"/>
        <path fill="#CCA983" d="M81.79 57.67c-1.33 11.15-1 21-1.77 34.61-.32 5.57-1.64 13.08-1.48 16.42a1.8 1.8 0 0 0 1.4 1.67c2 .46 5.93 1.14 6.89-.54 4.19-7.31 12.22-31 14.2-39.75 1.98-8.75-.1-5.62-.46-9.55-.36-3.93-18.38-6.26-18.78-2.86z"/>
        <path fill="#F2C994" d="M102.67 63.53c.38-7.51-14.18-8.26-18.12.43 1.38 7.64 2.44 13.75 4.42 23.37 1.61 7.83 4.7 20.74 6.41 24.74.47 1.11 2.67.07 6.68.3.65 0 .92-.93.91-1.59-.12-5.95-.74-38.88-.3-47.25z"/>
        <path fill="#17BCB5" d="M97.12 27.61c10.2 2.57 10.38 4.92 9.42 13.48-.96 8.56-3.33 16.74-3.54 25.91-7.27 1.16-16.42 2.37-22.87-1.79.79-7.91 2.1-27.16 5.66-33.44 1.33-2.36 2.29-3 5.5-3.56 0 0-.58 2.32 2.15 2.35 1.45 0 3.92.3 3.73-2-.05-.06-.5-1.06-.05-.95z"/>
        <path fill="#000" d="M121.15 51.09a.3.3 0 0 1-.2-.53l4.59-3.85a.37.37 0 0 1 .2-.07 21.67 21.67 0 0 0 2.79-.19 9.56 9.56 0 0 0 4.94-2.67l-.68-1.35a1 1 0 0 0-1.31-.48l-.68.29-4.13 1.21a.34.34 0 0 1-.26 0 .31.31 0 0 1-.12-.23l-.11-1.35-.18-1.59-1.78 3.15a.18.18 0 0 1-.05.07l-3.4 3.16a.3.3 0 1 1-.43-.42l3.36-3.13 1.76-3.11a.59.59 0 0 1 .64-.29.58.58 0 0 1 .47.53l.17 1.57.08 1 3.76-1.1.67-.28a1.61 1.61 0 0 1 2.08.76l.77 1.53a.3.3 0 0 1 0 .33 10.05 10.05 0 0 1-5.45 3 23.12 23.12 0 0 1-2.76.19L121.34 51a.28.28 0 0 1-.19.09z"/>
        <path fill="#13756E" d="M101.14 29.59A.62.62 0 0 1 102 29c3.73 1.26 4.71 3.47 6.22 6.69 1.62 3.45-.21 10.15 3.41 11.67 3 1.26 5.24-1.09 7.84-2.57a2 2 0 0 1 2.59.5l1.86 2.31a2 2 0 0 1-.4 2.94c-3.74 2.69-12.65 8.29-17.21 4.11-5.64-5.14-5.05-18.44-5.17-25.06z"/>
        <path fill="#000" d="M94.78 30.83a9 9 0 0 1-2.63-.48 1.64 1.64 0 0 1-1.1-1.92c.053-.213.103-.433.15-.66a12.82 12.82 0 0 0 .34-1.76c-2.05 0-2.56-1-2.77-1.89-.21-.89-.83-8.89 0-10.87.62-1.44 2.1-2.17 4.25-2.12a15.8 15.8 0 0 1 5.38 1.31c2.73 1.18 2.66 3.66 2.63 5v.38a43.79 43.79 0 0 1-1 6.45 2.84 2.84 0 0 1-2.88 2.1 5.68 5.68 0 0 1 .21 2.7 2 2 0 0 1-1 1.41 3.16 3.16 0 0 1-1.58.35zm-2.94-5.43a.27.27 0 0 1 .2.07.3.3 0 0 1 .1.21 9.1 9.1 0 0 1-.35 2.23l-.15.65a1 1 0 0 0 .7 1.21c1 .32 2.73.75 3.73.18.37-.214.625-.58.7-1a5.55 5.55 0 0 0-.33-2.77.3.3 0 0 1 0-.3.31.31 0 0 1 .27-.12c.09 0 2.27.22 2.69-1.62a43.6 43.6 0 0 0 1-6.31v-.4c0-1.27.09-3.4-2.25-4.41A14.81 14.81 0 0 0 93 11.74c-1.91-.05-3.15.54-3.67 1.75-.79 1.84-.21 9.55 0 10.5.12.53.35 1.53 2.47 1.41h.04z"/>
        <path fill="#CCA983" d="M88.35 19.82a8 8 0 0 0-.93-1.08 4.36 4.36 0 0 1-.76-1.73A7.38 7.38 0 0 1 89 9.08c4.4-3.7 13-1.38 14 4.62.61 3.55-1.63 8.06-1.63 8.06s-1.29 1.8-1.58-.32c-.11-.87-.08-3.36-.09-4.36 0-1.21-1.79-1.47-3-1.52-2.95-.13-6-2.55-6-2.55s-1.43 8.64-2.35 6.81z"/>
        <path fill="#FFF" d="M92.74 66.44a29.92 29.92 0 0 1-12.8-2.54.304.304 0 1 1 .28-.54c.09 0 9.18 4.73 22.76 1.09a.29.29 0 0 1 .37.21.3.3 0 0 1-.21.37 40.2 40.2 0 0 1-10.4 1.41zM97.43 110.87a11.93 11.93 0 0 1-2.78-.27.3.3 0 0 1-.22-.36.31.31 0 0 1 .37-.22 17.22 17.22 0 0 0 8.07-.54.31.31 0 0 1 .37.21.3.3 0 0 1-.21.37c-1.82.527-3.705.8-5.6.81zM84.05 109.29c-3.82 0-5.58-1.64-5.67-1.73a.3.3 0 0 1 0-.43.31.31 0 0 1 .43 0s2.72 2.5 8.64 1.16a.31.31 0 0 1 .36.23.29.29 0 0 1-.23.36 15.94 15.94 0 0 1-3.53.41z"/>
    </g>
</svg>
